<svg version="1.2" xmlns="http://www.w3.org/2000/svg" viewBox="0 0 1517 1524" width="1517" height="1524">
	<title>logo-color (1)-svg</title>
	<style>
		.s0 { fill: #ba8c60 } 
	</style>
	<path id="Layer" fill-rule="evenodd" class="s0" d="m758.1 1523.9c-419.2 0-758.1-340.6-758.1-762 0-421.3 338.9-761.9 758.1-761.9 419.2 0 758 340.6 758 761.9 0 421.4-338.8 762-758 762zm706.4-762c0-392.4-315.8-709.7-706.4-709.7-390.7 0-706.5 317.3-706.5 709.7 0 392.5 315.8 709.8 706.5 709.8 390.6 0 706.4-317.3 706.4-709.8zm-706.8 669.9c-368.5 0-666.3-299.7-666.3-670.5 0-370.9 297.8-670.6 666.3-670.6 368.4 0 666.3 299.7 666.3 670.6 0 370.8-297.9 670.5-666.3 670.5zm-245.7-1005.8c-37.8 37.1-74.9 74.9-110.7 114.7 116.9 127.1 237.1 250.1 360.1 371 123.1-120.9 244-243.9 360.1-371-35.7-39.2-72.8-76.3-110.6-113.4-83.9 79-167 159.4-249.5 241.2-81.8-81.8-164.9-162.9-249.4-242.5zm115.5-102.4c46 37.8 90.7 77 134.6 116.8 44-39.8 88.7-79 134.1-116.8-43.3-36.4-88.7-71.5-134.7-104.4-46.1 32.9-90.7 68-134 104.4zm-325.8 330.5c-28.8 35.7-56.3 72.1-82.4 109.9 149.1 206.8 334 390.2 542.2 537.3 207.5-147.1 392.4-330.5 540.2-538-25.5-37.1-52.3-73.5-80.5-108.6-137.4 171.7-292.7 329.1-458.3 474.1-167-145.7-322.4-303-461.2-474.7z"/>
</svg>