<svg version="1.2" xmlns="http://www.w3.org/2000/svg" viewBox="0 0 1512 1513" width="1512" height="1513">
	<title>nedbank-white-svg</title>
	<style>
		.s0 { fill: #ffffff } 
		.s1 { fill: #1b613f } 
	</style>
	<path id="Layer" fill-rule="evenodd" class="s0" d="m1101.5 1.2l410.5 270.2v971.3l-410.5 270.2-346.4-227.7-344.6 227.7-410.5-270.2v-970.4l410.5-271.4 344.3 227.7zm345.8 301.8l-343.4-228-343.8 228-343.4-228-352 228v903.4l352 227.6 343.4-227.6 343.5 227.6 343.4-227.6z"/>
	<path id="Layer" class="s0" d="m420.8 980.8l275 185.7-275 185.8zm687.2-363v-455.9l266.1 177.1v818.6l-1236.5-810.3 283.2-185.7z"/>
	<path id="Layer" fill-rule="evenodd" class="s1" d="m761.6 1206.4l-0.6 0.3-0.6-0.3-342.8 227.4-351.4-227.4-0.1-903.4 351.5-227.7 342.8 227.7 0.6-0.3 0.6 0.3 343.2-227.7 342.8 227.7h-0.3v903.4l-342.8 227.4zm-65.9-39.9l-274.9-185.8v371.3zm678.3-8.9v-818.6l-266.1-177.2v456l-687.2-456-283.2 185.8z"/>
</svg>